<?xml version="1.0" encoding="UTF-8"?>
<svg version="1.1" viewBox="0 0 1024 1024" width="1024" height="1024" xmlns="http://www.w3.org/2000/svg">
<path transform="translate(0)" d="m0 0h1024v1024h-1024z" fill="#D0D5D7"/>
<path transform="translate(482,178)" d="m0 0h46l40 5 25 6 26 8 24 11 16 8 22 13 16 12 17 14 12 11 10 10 7 8 12 15 12 17 11 18 14 26 10 23 9 25 7 31 4 28 1 12v53l-3 22-5 25-9 30-10 25-8 16-10 18-15 23-14 18-12 14-15 15-22 18-17 12-15 9-18 10-17 8-24 9-14 5-31 7-19 3-26 2h-31l-29-3-28-5-24-7-22-8-15-7-21-11-18-11-20-14-11-9-13-12-20-20-9-11-10-13-13-20-12-21-12-25-12-34-7-30-3-22-1-14v-34l2-29 6-34 6-23 8-23 9-20 10-20 14-22 10-15 13-16 9-11 17-17 8-7 12-10 17-12 19-12 27-14 28-11 19-6 28-6 21-3z" fill="#E8EDED"/>
<path transform="translate(482,178)" d="m0 0h46l40 5 25 6 26 8 24 11 16 8 22 13 16 12 17 14 12 11 10 10 7 8 12 15 12 17 11 18 14 26 10 23 9 25 7 31 4 28 1 12v53l-3 22-5 25-9 30-10 25-8 16-10 18-15 23-14 18-12 14-15 15-22 18-17 12-15 9-18 10-17 8-24 9-14 5-31 7-19 3-26 2h-31l-29-3-28-5-24-7-22-8-15-7-21-11-18-11-20-14-11-9-13-12-20-20-9-11-10-13-13-20-12-21-12-25-12-34-7-30-3-22-1-14v-34l2-29 6-34 6-23 8-23 9-20 10-20 14-22 10-15 13-16 9-11 17-17 8-7 12-10 17-12 19-12 27-14 28-11 19-6 28-6 21-3zm12 29-40 4-31 7-28 10-20 9-18 10-16 11-12 9-9 7-15 14-12 12-9 11-1 4-4 2-6 8-6 10-10 15-8 15-6 13-5 12-7 20-7 29-5 34-1 17v28l2 25 5 28 8 27 7 18 9 19 10 18 14 21 11 14 12 14 16 16 11 9 17 13 20 13 27 14 21 9 23 7 29 6 30 3h32l27-3 22-4 25-7 24-9 21-10 18-10 15-10 13-10 13-11 12-11 7-8 12-14 10-14 9-14 8-13 12-24 8-20 8-28 4-18 3-20 1-16v-23l-2-28-5-29-6-24-9-26-10-22-11-20-10-15-8-11-11-14-11-12-5-6-8-7-11-10-13-10-24-16-25-13-27-11-26-7-23-4-29-3z" fill="#3C454E"/>
<path transform="translate(442,521)" d="m0 0h2l2 12 4 27 6 23 8 26 7 21 12 31v3h2l3-18 2-26 1-23-3-7-2-2-8 9-6 3-5-5-1-2v-6l6-8 9-9 7-6 9-11 4-3 5-1h7l6 4 7 8 9 11 9 10 3 6-1 7-5 4-5-2-6-5-2-3-3-1-2 5-2 2v16l3 36 3 16 2-2 14-35 12-36 6-22 7-36 4-8 7 1 18 13 15 9 19 12 14 10 15 14 10 11 9 13 1 4-10 9-5 6-5 5-15 14-17 13-14 9-23 12-24 9-25 6-12 2-17 1h-13l-27-3-24-5-24-8-25-12-11-7-14-9-10-8-12-11-5-4-7-8-9-11 1-5 11-14 9-10 5-5 11-10 19-13 17-10 16-10 14-9z" fill="#3C454E"/>
<path transform="translate(558,344)" d="m0 0 2 4 11 26 3 13 1 10 1 24 11 1 1 5-2 11-4 5-12 4h-2l-3 11-5 18-6 11-7 9-7 7-11 7-13 4h-16l-15-5-10-7-8-7-8-11-6-12-5-19-2-5-12-4-5-6-2-8v-7l10-2h2v-29l3-16 5-13 3-6 7-8 4-3 5 1 17 7 17 4 15 2 14-1 15-5 10-6z" fill="#E8EDED"/>
<path transform="translate(579,283)" d="m0 0h3l2 9v10l-2 11-3 10 9 9 7 11 4 13 1 10v12l-2 16-2 13 5 7 2 8v13l-5 12-3 6-10 8-4 2-4 13-5 13-6 7-10 13-8 8-13 8-10 4-10 2h-16l-15-4-15-8-14-12-9-11-8-14-4-16v-4l-6-1-9-7-6-9-2-7-1-12 3-12 4-6h2l-4-11-2-12v-27l4-15 6-10 9-8 8-3h4l1-8 6-10 9-8 13-6 15-3 18 1 31 6h21l10-3 9-6zm-21 61-8 7-14 6-7 2-14 1-21-3-17-5-13-6-4 1-7 6-4 5-6 15-3 11-1 8v29l-10 1-2 1v7l3 10 4 4 12 4 3 9 4 15 7 14 11 13 12 9 13 5 4 1h16l13-4 11-7 10-10 8-13 4-10 6-21v-2l12-3 5-4 2-6 1-9-1-3-11-1-1-24-2-16-5-15-8-18z" fill="#3C454E"/>
</svg>
