<?xml version="1.0" encoding="UTF-8"?>
<svg version="1.1" viewBox="0 0 1024 1024" width="1024" height="1024" xmlns="http://www.w3.org/2000/svg">
<path transform="translate(0)" d="m0 0h1024v1024h-1024z" fill="#DBDBDA"/>
<path transform="translate(510,187)" d="m0 0h9l24 3 16 5 17 8 14 10 17 17 9 14 8 16 4 17 1 17 11 4 5 5 5 7 3 10 1 9-4 16-6 9-8 7-8 3h-3l-2 6 1 4h-2l1 2 8 1-6 3-4 9-14 4-8 5-10 5h-3v2l-5 2-1 9-2 2-2-4h-2l-4 1-1 5h7l2 2-3 7-9 10-7 6-14 8-13 4-6 1h-21l-15-3-12-5-10-8-7-7-9-13-6-16-9-19-5-21v-67l2-16 5-13 7-12 11-13 12-9 16-8 11-3 8-1h25l16 4 16 8 12 9 10 11 7 12 6 18 1 8v61l-2 6-3 4h-2v2l-5 3-3 4v5l9-3 4-3 5-2 7-10 4-5 1-10v-26l-2-34-3-14-7-17-7-11-11-12-12-9-15-8-15-5-20-3h-14l-15 2-15 5-17 9-14 11-9 10-6 10-5 10-5 15-2 12v75l-1 2-12-1-12-5-8-7-6-9-3-9-1-12 3-12 5-9 5-5 5-4 8-2v-8l3-16 6-17 9-16 9-11 13-13 15-10 17-8 19-5z" fill="#DBDBDA"/>
<path transform="translate(500,141)" d="m0 0h22l21 1 30 5 21 6 19 7 19 9 24 16 14 11 12 11 11 11 13 17 10 14 14 24 12 28 6 22 4 24 1 10v35l-2 27-5 25-7 21-7 16-5 9-11 18-7 9-10 13-16 17-11 11-17 13-14 9-23 12-23 9-20 6-10-1-10-4-1-4 5-12 5-4 17-5 21-9 13-7 22-13 16-13 8-7 6-5 7-8 15-20 12-19 10-21 8-24 5-25 1-13v-29l-2-18-6-24-9-26-11-22-14-21-10-13-12-13-8-7-12-10-13-9-16-9-18-8-28-9-20-4-12-1h-38l-20 3-23 6-21 7-23 11-15 10-16 13-15 14-12 13-9 13-8 13-8 16-8 19-5 15-5 23-2 20v25l2 22 5 22 7 20 11 23 12 19 11 14 9 10 8 9 11 9 10 8 19 12 19 10 26 10 15 5 3 4 1 10-5 4-7 3-13-1-15-4-24-9-21-11-22-15-14-12-23-23-15-20-8-13-10-18-10-25-7-26-3-21-1-13v-25l3-29 4-20 7-24 7-17 12-22 11-17 10-13 9-10 7-8 14-13 17-13 14-9 10-6 24-11 24-8 23-5 16-2z" fill="#152D39"/>
<path transform="translate(510,187)" d="m0 0h9l24 3 16 5 17 8 14 10 17 17 9 14 8 16 4 17 1 17 11 4 5 5 5 7 3 10 1 9-4 16-6 9-8 7-8 3h-3l-2 5-9 12-9 10-10 7-15 7-15 5-16 3-16 1-8 7-5 2h-11l-10-5-5-7v-12l5-8 5-4 8-2 10 1 6 4 4 4 23-2 20-6 12-5 6-4 8-7 8-12 2-2 1-10v-26l-2-34-3-14-7-17-7-11-11-12-12-9-15-8-15-5-20-3h-14l-15 2-15 5-17 9-14 11-9 10-6 10-5 10-5 15-2 12v75l-1 2-12-1-12-5-8-7-6-9-3-9-1-12 3-12 5-9 5-5 5-4 8-2v-8l3-16 6-17 9-16 9-11 13-13 15-10 17-8 19-5z" fill="#152D39"/>
<path transform="translate(504,224)" d="m0 0h25l16 4 16 8 12 9 10 11 7 12 6 18 1 8v61l-4 6-8 7-9 2-1-2v-72l-4-15-6-11-8-9-10-7-12-5-9-2-10-1-19 2-14 6-12 9-7 7-8 16-2 11v52l2 21 4 15 8 16 4 9 4 8 9 10 11 6 11 3h15l12-3 18-8 22-5 4 1-3 7-9 10-7 6-14 8-13 4-6 1h-21l-15-3-12-5-10-8-7-7-9-13-6-16-9-19-5-21v-67l2-16 5-13 7-12 11-13 12-9 16-8 11-3z" fill="#152E3A"/>
<path transform="translate(580,441)" d="m0 0 5 3 4 5 8 7 17 13 45 30 2 3-19 19-13 10-20 13-19 10-28 13-13 7-6 7h-1l1-11 7-30 6-21 5-15 5-17 9-28z" fill="#152C38"/>
<path transform="translate(449,443)" d="m0 0 2 1 5 21 16 53 6 19 10 35-1 4-5-4-19-8-26-11-22-12-19-13-10-8-14-14v-2l-3-1 4-5 36-24 20-14 14-11z" fill="#152C38"/>
<path transform="translate(507,273)" d="m0 0h16l13 4 6 4 9 9 7 13 2 8v15l-4 13-8 11-7 7-10 5-11 3h-9l-10-2-9-4-8-6-7-8-5-10-3-13 1-12 3-10 5-9 8-9 10-6z" fill="#2186C0"/>
<path transform="translate(616,215)" d="m0 0 4 2 16 12 12 11 8 8 11 14 12 17 9 17 7 16 7 25 2 9 2 21v23l-2 21-6 25-10 25-13 23-2 2-4-1-18-11 2-5 10-18 8-19 6-20 3-17 1-23-2-20-4-16-4-10-3-14-5-12-9-12-10-7-3-19-5-14-6-12-12-17z" fill="#2186C0"/>
<path transform="translate(413,215)" d="m0 0 2 1-14 18-9 19-4 14-1 13-5 3-8 6-8 10-4 8-3 16-1 13-3 4-4 18-1 12v20l4 26 6 18 12 25 9 12-2 4-16 10-6 3-13-23-8-18-7-22-3-16-2-17v-16l3-27 4-19 7-22 12-25 9-14 10-13 8-10 5-4 7-8h2v-2l8-7 10-7z" fill="#2186C0"/>
<path transform="translate(528,777)" d="m0 0h10l1 4-7 11-12 12 1 6-6 9-5 4-4-1-1-10v-13l-4-2-5 10-1 4v12l4 9 1 3 5 2 7 1 8-7 11-7 8-7 3-5 4-20 5-6 3-2 5-1h9l2 2-1 8-5 11-3 19-4 12-8 13-5 6-11 7-7 3-5 1h-11l-14-3-9-6-7-8-5-13-1-4v-23l4-11 5-7h2v-2l5-3 19-2 14-5z" fill="#152E3B"/>
<path transform="translate(364,355)" d="m0 0 5 5 6 8 8 7 13 8 10 3 13 1 5 1 3 12 5 11 3 12v8l-10 9-13 10-17 12-3 1-10-16-7-14-7-20-4-22z" fill="#2186C0"/>
<path transform="translate(665,352)" d="m0 0 2 1v31l-4 24-5 17-8 19-11 16-3 2-15-10-17-13-6-7-3-10v-5l7-4 16-12 3-3h2l2-4 10-13 12-7 11-10z" fill="#2186C0"/>
<path transform="translate(506,474)" d="m0 0h18l6 4 10 13 2 5-11 13-4 4h-2l5 25 1 8v21l-2 19-3 10-3 3-8 1-4-1-5-14-7-24-1-5v-15l5-26-7-6-8-13 2-6 13-14z" fill="#152D39"/>
<path transform="translate(241,619)" d="m0 0h12l8 3 6 7 2 5 1 34v16l-4 8-8 7-7 2h-9l-8-3-6-5-4-8-1-5v-17l1-27 4-8 8-7z" fill="#152E3B"/>
<path transform="translate(279,620)" d="m0 0h13l7 8 9 16 5 12 2 5v-41h15l1 19 1 48-1 13h-14l-6-12-9-20-6-14-1 46h-15l-1-7z" fill="#152D3A"/>
<path transform="translate(828,620)" d="m0 0h30l8 4 5 6 2 10-1 16-3 6-5 5 8 21 3 9v3h-16l-8-25-1-4h-7v29l-14 1-1-7z" fill="#152F3C"/>
<path transform="translate(677,620)" d="m0 0h13l7 10 8 17 5 14 1-41h14l1 36v44l-13 1-8-16-12-29-1-2-1 47-14-1z" fill="#152D3A"/>
<path transform="translate(403,620)" d="m0 0h16l4 2 15 60 3 14v4h-16l-3-15-17-1-4 17h-15l5-25 7-37 4-17z" fill="#152D3A"/>
<path transform="translate(512,291)" d="m0 0 11 1 8 4 6 5 4 8 1 3v14l-3 8-5 6-8 5-10 2-9-1-10-6-6-7-3-7v-16l5-10 8-6z" fill="#E5EAEC"/>
<path transform="translate(492,631)" d="m0 0 1 2 4 1 1-1h15l1 1v61l-2-4-5-5-5 1-5 4 1 6-6 1v-2h-5l5-9 1-14h-11l-4-1v10l-3 5-8-1-3-3-1-4v-39l2-5 4-2 6 1 3 3v11l15-1z" fill="#E5EBED"/>
<path transform="translate(190,619)" d="m0 0 13 1 6 4 6 7 1 3v15h-15l-1-13-5-3-7 1-1 3v45l4 4h6l3-3 2-10h14v13l-4 7-7 6-6 2h-10l-8-3-5-4-5-8-1-3v-45l3-8 6-7 6-3z" fill="#152E3B"/>
<path transform="translate(598,619)" d="m0 0h8l10 3 7 7 2 4v17h-15v-11l-1-5-7-1-5 2-1 2v44l1 4 9 1 3-5 1-9 15 1v11l-3 8-7 6-9 3h-7l-8-3-7-6-4-8v-51l3-5 8-7z" fill="#152D39"/>
<path transform="translate(463,620)" d="m0 0h15l8 4 5 6 2 6v11l-7 1h-8l-1-11-4-3-6 1-2 1-1 4v39l2 5 4 2h5l2-4 1-10 15 1v14l-4 7-9 6-3 1h-13l-7-4-7-7-2-4v-50l4-8 5-5z" fill="#152D39"/>
<path transform="translate(784,620)" d="m0 0h37v14h-23v19h19l-1 13h-18v20h23v14h-38v-58z" fill="#152E3A"/>
<path transform="translate(632,620)" d="m0 0h39v14h-24l1 3-1 15 18 1v12l-16 1-1 20h23v12l-1 2-37 1z" fill="#152D3A"/>
<path transform="translate(338,619)" d="m0 0 48 1v14l-14 1-1 65-2 1h-12l-1-1-1-54-1-11-16-1z" fill="#152E3B"/>
<path transform="translate(499,619)" d="m0 0 45 1v13h-15v68h-15l-1-67-15-1z" fill="#152D3A"/>
<path transform="translate(552,776)" d="m0 0h6v2h2v5l-9 4-4 5-4 20-4 6-8 7-11 7-8 7-7-1-5-3-4-6-2-6v-12l4-11 3-4 4 2 1 1v19l1 4 5-1 6-7 2-6-1-4 4-5 8-7 7-11 8-1h7l2-2z" fill="#DBDCDB"/>
<path transform="translate(732,620)" d="m0 0h44v14l-14-1v68h-13l-1-4v-63h-16z" fill="#152F3D"/>
<path transform="translate(602,632)" d="m0 0 5 1 3 3 1 3v9l-1 2 3-1h11l1-8h1l2 10 5 1v47h-1v-5l-5-2v-3l-5 5-4 2 5-8 2-15h-11l-4-1v9l-3 5-1 1h-6l-4-4-1-2v-44l4-4z" fill="#E5EBED"/>
<path transform="translate(528,777)" d="m0 0h10l1 4-7 11-12 12 1 6-6 9-5 4-4-1-1-10v-13l-4-2-4 5-1-1-14-2-3-3 4-6h2v-2l5-3 19-2 14-5z" fill="#2085BF"/>
<path transform="translate(384,720)" d="m0 0 5 1 2 1v2h2v-3h22v1h-20v6l8 1v19h7v-19l6-1v-7l2 1 1 6v6l-2 5-3 3 5 1 2-4-1-9 3-1 1 10 4 6 5 3h7l6-5 2-3v-10l-4-5-8-4 3-1 5 2 7 8v2l7-2 1 19-4-2-1-2-5-1-3 4-8 3-16-2-2-1-1 2h-10l3 2h14l2 1v2l-4 2h-2l-5-1-2 1-1-2-6-1-1 2 2 1-5-1-3-2h-5v-3l6-1-2-1-4 1-7-2-5 3h-7l-8-5-1-4 2 1v2l5 2 2 1h7l5-5v-7l-9-4-3-2v-2h12l-1-4-4-2z" fill="#E5EBED"/>
<path transform="translate(569,720)" d="m0 0h7l2 2h-7l-7 3-1 5 5 5 6 4v4l-4-1-1-1h-5v4l6 3h6l5-5 1-4-2-4-10-3v-4h10l2-3 3 1 2 4 2-5h1l1 27-3-4h-7l-4 1-1 2-9-1-4-2-3 1-2-2-3-2-3 1 4 2-13 1-5-11 4-4-1-7-1-3-8-2v-1h6l3 2v2h10l1-4 6 1 2 3 4-4z" fill="#E5EBEC"/>
<path transform="translate(239,733)" d="m0 0h47l3 3-1 5-3 2h-43l-45-1-3-1v-6l2-1z" fill="#2186C0"/>
<path transform="translate(757,733)" d="m0 0h67l24 1 1 1v6l-3 1h-86l-3-2z" fill="#2186C0"/>
<path transform="translate(246,632)" d="m0 0 5 1 3 5v35l-1 10-3 3-6 1-5-3-1-3v-41l2-6z" fill="#DBDCDB"/>
<path transform="translate(616,721)" d="m0 0h16l5 2 1 2 6-2 5 13 6 11h4l8-20 1-5 3-1 3 1 2-1h6l-4 2h-2l1 25 4 1-7 1-22 1-3 1h-7l-11-2-3-3h-1l-3 3h-6v-1l5-1 1-8 4 1 4 6 6 1-2-6-2-3 3-4v-6l-4-5-3-1-14-1z" fill="#E5EBED"/>
<path transform="translate(202,364)" d="m0 0h13l5 3 1 2v13l-6 7-3 1h-12l-6-4-4-5 1-9 5-6z" fill="#2186C0"/>
<path transform="translate(822,365)" d="m0 0h13l7 3 5 7v7l-4 4-4 3-4 1h-12l-5-5-3-6v-7l3-5z" fill="#2186C0"/>
<path transform="translate(489,311)" d="m0 0 1 2v9l2 7 3 1-1-6 3-2 3 4v-10l2-4h2l-1 9 5 8 8 2 5-1-1 5 9-3h8l3-2-2 5-4 5-8 5-10 2-9-1-10-6-6-7-3-7v-14z" fill="#E5EBEC"/>
<path transform="translate(501,796)" d="m0 0 4 2 1 1v19l1 4 5-1 6-7 3-5 2-5 1 2-2 7-3 6h-1l-2 8 7-1 2-2 10-3-4 4-11 7-8 7-7-1-5-3-4-6-2-6v-12l4-11z" fill="#E3E8E9"/>
<path transform="translate(469,633)" d="m0 0 6 1 3 3v12l-1 2h-2v10l-1 7 2 4v10l-3 3-6 1-3-3-1-4v-39l2-5z" fill="#DCDCDC"/>
<path transform="translate(782,366)" d="m0 0h18l4 5 1 2v10l-5 5-3 1h-15l-8-7-1-7 3-5z" fill="#2186C0"/>
<path transform="translate(506,270)" d="m0 0 18 1 9 2 12 8v2h3l4 6 5 8 4 9 1 16h-1l-3-15-4-10-6-9-8-8-12-5-5-1h-16l-13 4-9 6-7 8-5 10-3 14 1 12 5 14 7 9 7 6 8 4 6 2 7 1h9l13-4 9-5 7-7 6-9 4-11 2-1-1 7-5 10-9 11-8 6-10 4-7 2h-8l-14-2-9-5-5-3v-2l-4-1-4-5v-2h-2l-6-14-2-11 1-11 1-9v-4l4-5h2v-2h2l2-5 8-7h2v-2l9-4 6-2z" fill="#E4E9EA"/>
<path transform="translate(432,722)" d="m0 0h8l6 4 3 4v10l-7 8-2 1h-7l-6-4-4-6-1-7 4-6z" fill="#153140"/>
<path transform="translate(237,366)" d="m0 0h13l5 3 4 5v7l-5 6-4 2h-13l-5-5-2-9 3-7z" fill="#2186C0"/>
<path transform="translate(512,306)" d="m0 0h8l7 6 1 2v8l-4 6-4 3-5 1-7-2-4-5-2-4 1-7 5-6z" fill="#2186C0"/>
<path transform="translate(458,722)" d="m0 0 7 1 5 8h2l6-9h6l1 3v24h-6l-2-12-4 7-3 1-6-9v12h-6z" fill="#15303D"/>
<path transform="translate(622,370)" d="m0 0 2 4h-2l1 2 8 1-6 3-4 9-14 4-8 5-10 5h-3v2l-5 2-1 9-2 2-2-4h-2l-4 1-1 5h7l-2 2-22 5-3-1 8-4 8-1-1-5-1-3h-11l4-2 19-5 18-8 11-7 7-7 10-13z" fill="#E5EBEC"/>
<path transform="translate(616,722)" d="m0 0h14l5 3 3 4v6l-3 5 4 6-1 3-6-1-5-7-3-1v8l-3 1-4-1z" fill="#163343"/>
<path transform="translate(521,722)" d="m0 0h16l5 5 1 7-4 5 4 7v2h-7l-4-6-4-1-1 7h-6z" fill="#152E3B"/>
<path transform="translate(627,232)" d="m0 0 4 4 7 14 4 12 3 19 10 7 9 12 6 15 3 14 5 13 3 18 1 20-2 22-4 17-6 18-10 22-9 15-1-3 10-17 8-20 7-21 3-13 1-14v-22l-2-11-1-8-3-9v-2h-2v-6h-2l-2-15-8-16-7-9-9-6-3-18-4-13-9-17z" fill="#E4E9EA"/>
<path transform="translate(342,722)" d="m0 0h4l1 19 6-1 1-18h8l-1 19-4 6-3 2h-7l-6-4-2-4-1-8v-10z" fill="#153240"/>
<path transform="translate(722,722)" d="m0 0h20l1 2-2 4h-12v4h10l1 3-1 2h-9v4l11 1v7l-19-1z" fill="#15303D"/>
<path transform="translate(544,660)" d="m0 0h27l1 1v9l-1 3-8 1h-19z" fill="#163646"/>
<path transform="translate(378,721)" d="m0 0 7 1 4 4v2l-4 1-8-1 3 3 9 4 1 1v7l-4 5-2 1h-7l-7-4v-5h7l2 3h2v-4l-10-5-2-2 1-6 4-4z" fill="#153241"/>
<path transform="translate(688,296)" d="m0 0 4 5 7 19 4 13 3 17 1 6v46l-1 3-1 11-6 22-8 21-12 22-5 7-5-1-18-11 3-1 16 10 4-1 13-23 8-19 7-26 2-14 1-12v-23l-2-21-5-20-6-19-4-8z" fill="#E3E7E8"/>
<path transform="translate(590,722)" d="m0 0h18v6l-11 1-1 3h10v4l-9 1v4l10-1 1 1v8h-17l-1-7z" fill="#15303E"/>
<path transform="translate(319,721)" d="m0 0 8 1 4 3-1 4-6 1h-5l-2 3 1 6 7 2 1-3 5 3-2 5-4 3-9-1-7-8v-11l5-6z" fill="#153140"/>
<path transform="translate(571,721)" d="m0 0 9 2 1 5-5 1h-6v2l10 3 3 5-2 6-5 4-9-1-4-3 1-5h5l5 3-2-5-8-5-2-5 3-5z" fill="#15313F"/>
<path transform="translate(615,722)" d="m0 0h1l1 10v16l-3-4-3 1v5l-2 1-1 3-2-1-9 1-2 1-3-2 1-3 2-2h11l2 1-1-8h-10v-4l9-1v-4h-10l1-4h11l1-3 1 4 3-1 1-1z" fill="#E5EAEC"/>
<path transform="translate(494,722)" d="m0 0h18v5l-1 1h-10v4h9v4l-8 2-1 3h10v7h-16z" fill="#152E3C"/>
<path transform="translate(499,297)" d="m0 0 9 1-2 2 1 8-3 1v3h-2l-1 7v7l-2 2-2-5-2 2v5l-4-1-2-7v-9l4-10h2l2-4z" fill="#DBDBDA"/>
<path transform="translate(702,721)" d="m0 0h6l6 4-1 4-6 1-4-1-3 2v6l2 3 8-1 4 2-1 4-5 3h-8l-6-5-2-4v-9l4-6z" fill="#153140"/>
<path transform="translate(512,721)" d="m0 0h2v5l6-1 1 1v23l-7 1-5-1 2-1v-7h-10l1-4 8-1v-4h-9v-4l10-1z" fill="#E5EBED"/>
<path transform="translate(644,722)" d="m0 0h6l6 13 2-3 3-9 7-1-1 8-7 17-4 2-6-9-5-11z" fill="#163343"/>
<path transform="translate(843,634)" d="m0 0h10l4 4v12l-2 5-2 2h-11v-11z" fill="#DCDCDC"/>
<path transform="translate(370,293)" d="m0 0v3l-5 9-3 8-3 25-3 4-2 7-2 18v28l4 23 7 19 8 17 4 6-1 3-6-10-9-19-6-18-4-26v-20l2-18 3-12 3-4 2-19 3-12 6-10z" fill="#E3E8EA"/>
<path transform="translate(818,727)" d="m0 0h4v2l4 1h18l7 4v5l-1-4-26-1-67-1 1 7 6 2-2 1v2l-5 2-3-2 1-1v-10l3-3 15-1h41l3-1z" fill="#E4E9EB"/>
<path transform="translate(501,796)" d="m0 0 4 2 1 1v13l-2-3h-3v5h2l2 9-3 7-2 2-3-1-3-8v-12l4-11z" fill="#DBDBDA"/>
<path transform="translate(395,722)" d="m0 0h21l1 6-1 1h-6v19h-7v-19h-6l-2-1z" fill="#152E3B"/>
<path transform="translate(368,228)" d="m0 0 3 1h-2l-1 4-6 5v3l-4 2h-2l-2 6v6l-4 1-2 9-2 3h-2l-1 3-3-1-1 5-8 4 1-4 7-12 9-13 9-10 7-8z" fill="#E5EAEC"/>
<path transform="translate(393,228)" d="m0 0h2l-2 4h-2v2l-7 6-5 6-5 5-12 15-9 14-10 19-6 14-7 25-4 24h-1v-16l1-1 3-16 3-9 4-11 5-13h2l1-5 8-15 3-5 6-8 9-11 7-8 4-5h2v-2l8-7z" fill="#E4E9EA"/>
<path transform="translate(600,634)" d="m0 0h6l3 3v11l-1 3-6 4-2 2h-4l-1 3v-12l1-8 2-5z" fill="#DBDBDA"/>
<path transform="translate(487,720)" d="m0 0 3 3h-2l-1 5 5 1 1-5h1l1 8v16h13v1h-16l-1-2-2 3-2-1v2l-7-1v-1h5l-1-27z" fill="#E4E9EB"/>
<path transform="translate(575,344)" d="m0 0h1v26l11-4 7-7 2 1-4 5h-2v2l-5 3-3 4v5l9-3 4-3 3 1-9 7-11 5-9 2 2-1 1-2 5-2-1-3 1-5-3-3-1-5v-15z" fill="#E4E9EB"/>
<path transform="translate(202,660)" d="m0 0h6l3 2v2l4 1 3 5-1 3h-15v7l-2 3-1-10-3-3 1-5z" fill="#E5EBED"/>
<path transform="translate(396,419)" d="m0 0 8 1 4 2 2 3v9l-3 2h-7l-4-4-1-4v-8z" fill="#DBDBDA"/>
<path transform="translate(630,419)" d="m0 0 5 2 2 3-1 7-4 5-7 1-4-4 1-7 5-6z" fill="#E4EAEC"/>
<path transform="translate(197,362)" d="m0 0h17l7 1h3l7 1 1 2-8 1-1 2 7 1-2 4-1-2h-4v11l-8 8h-18l-8-8v-9l3-7zm5 2-7 3-4 5-1 9 6 7 4 2h12l5-3 4-5v-13l-3-4-3-1z" fill="#E4E9EB"/>
<path transform="translate(600,664)" d="m0 0 2 1 1 3 2 1v2l4 2 1 8-2 3-6 2-2-1v-2l-3-1-1-2v-9l2-4h2z" fill="#DBDBDA"/>
<path transform="translate(327,417)" d="m0 0 2 4 6 20 6 16 10 19 7 11 18-11 4-3 1-4 2 5-5 4-9 5h-2v2l-6 4h-5l-1-4h-2l-5-9-7-13v-3h-2l-7-20-4-9z" fill="#E3E8E9"/>
<path transform="translate(733,477)" d="m0 0h2l-2 7-2 4-3 7h-2l-1 5 1 5-4 5-5 1-5 8h-2l-1 3-4 2 1-4 8-11 11-17 5-10z" fill="#E5EBED"/>
<path transform="translate(329,723)" d="m0 0 5 1-3 9 3 4-1 6-2 3-2-1 1-4-4-2-1 2h-6l-3-4 1-6 2-2h9l2-1z" fill="#E5EBED"/>
<path transform="translate(436,720)" d="m0 0 7 1 7 7 1 4 7-2 1 19-4-2-1-2-5-1-3 4-8 3-6-1v-1l10-2 6-7v-10l-4-5-8-4z" fill="#E4EAEB"/>
<path transform="translate(425,629)" d="m0 0 2 3 1 3 4 2v4h2l1 7-1 5 5-3 2-2h6l-1 6-8 2-1 2h-2l-1 7-2-3-7-28z" fill="#E5EBEC"/>
<path transform="translate(477,257)" d="m0 0h2v2l-5 4h-2l-2 7h2l-1 5-3 7-4 3-8 1 1-5 6-11 10-10z" fill="#E5EAEC"/>
<path transform="translate(412,642)" d="m0 0h2l3 19 2 9-1 1h-10l1-16 2-11z" fill="#E5EAEC"/>
<path transform="translate(370,361)" d="m0 0 11 11 7 4 10 6 6 2 8 1v-3l4 2h12l3 3v2l-5-2 1 7 5 13 2 7-3-3-7-17-1-6h-10l-14-3-11-6-10-7-7-7z" fill="#E4E9EB"/>
<path transform="translate(678,722)" d="m0 0h5v26h-6l-1-4v-21z" fill="#16394C"/>
<path transform="translate(688,296)" d="m0 0 4 5 7 19 4 13 3 17 1 6v46l-2 3v-38l-2-21-5-20-6-19-4-8z" fill="#E4E9EB"/>
<path transform="translate(378,651)" d="m0 0 2 4 2 9 9 1 2-1-1 4-2 4-3 4h-2v2l-5 1-3-1 1-22-1-4z" fill="#E6ECEE"/>
<path transform="translate(781,364)" d="m0 0h20l3 3 3 6v9l-3 5-6 4h-15l-7-4-4-6v-8l5-6h2l1-2zm1 2-6 4-3 5 1 7 8 7h15l5-3 3-3v-10l-4-6-1-1z" fill="#E3E7E9"/>
<path transform="translate(817,654)" d="m0 0h1v13l-5 1h-13v4h2v-2l4 1 1 5-3 3h-3l-1 6h19v1h-21v-20h18v-9z" fill="#E6ECEE"/>
<path transform="translate(639,377)" d="m0 0 3 1-7 4-9 12-5 5-9 8-14 10h-3v5l-2-3 1-8 4-2 8-2 12-8 1-2h2v-2h2v-2h2l2-5 4-4 4-5z" fill="#E5EAEC"/>
<path transform="translate(529,477)" d="m0 0 3 1 6 8 6 3 1-1 1-9 3 1 2 4v8l-5 3h-3l-1 5-3 1-2 5-5 2 6-8 3-5-7-11-5-6z" fill="#E5EBED"/>
<path transform="translate(346,721)" d="m0 0 1 2 6-2h9v1h-8v18l-1 1h-6l-1-2z" fill="#E5EAEC"/>
<path transform="translate(828,362)" d="m0 0 9 1 6 4 6 8v7l-4 5h-3v2h-2v2l-16 1-3-3h14l5-2 4-3h2v-9l-4-6-7-3h-13l-5 3-2 11-2-2-1-5 6-8 4-2z" fill="#E5EAEC"/>
<path transform="translate(703,728)" d="m0 0 8 1 4-1-1 3-4 1 2 4 4 4-2 5-1-4-4-1-7 1-3-4v-6z" fill="#E5EBEC"/>
<path transform="translate(501,796)" d="m0 0 4 2 1 1v13l-2-3h-3v2h-2l-2-3-1 18-2-3v-12l4-11z" fill="#DFE1E2"/>
<path transform="translate(675,676)" d="m0 0h2v15h-1v-7l-5 2h-23v-3l8-1 5 2 6-5h8z" fill="#E5EBED"/>
<path transform="translate(743,723)" d="m0 0 1 3-3 5 1 2v8l1 3-2 3v-5h-11l-1-3 1-2h9v-4l-10-1v-4l12-1z" fill="#E5EAEC"/>
<path transform="translate(445,233)" d="m0 0v3l-4 5-4 7-2 2-3 6-1 5-4 4v3h-2l-3 10-2 1 1-7 5-13 7-12 9-11z" fill="#E5EAEC"/>
<path transform="translate(434,728)" d="m0 0 5 1 3 3v6l-3 3-4 1-5-4v-6z" fill="#E5EAEC"/>
<path transform="translate(463,734)" d="m0 0 8 10h2l2-5 3-4 1 5v8h-4-6l-7 2-2-2h4z" fill="#E4EAEB"/>
<path transform="translate(560,327)" d="m0 0h1l-1 7-5 10-9 11-8 6-10 4-7 2h-8v-2l15-3 9-4 6-4 9-10 5-10z" fill="#E5EAEC"/>
<path transform="translate(552,776)" d="m0 0h6v2h2v5l-9 4-4 5-2 6h-1l-1-8 2-1v-6-3h8l2-2z" fill="#E4EAEC"/>
<path transform="translate(239,363)" d="m0 0 14 2 6 4 2 6v6l-6 7-6 3h-10l-4-2 2-1h13l6-4 2-3v-7l-5-6-3-1h-13l-4 1-1 3-1-3 1-2z" fill="#E4EAEC"/>
<path transform="translate(314,619)" d="m0 0h15v1h-14l1 14v29l-3-4-4-11 1-3 2 1v2h2l-1-28z" fill="#E4EAEB"/>
<path transform="translate(404,748)" d="m0 0h5l1 3 2 1h14l2 1v2l-4 2h-2l-5-1-2 1-1-2-6-1-1 2 2 1-5-1-3-2h-5v-3l8-1z" fill="#E6ECEE"/>
<path transform="translate(595,424)" d="m0 0 2 3 4 8 9 8 18 13 9 5 8-11 4-4-2 5-8 12-5-1-6-3-24-18-7-7-2-6z" fill="#E4E9EA"/>
<path transform="translate(497,648)" d="m0 0 3 1 2 4 3 3 2 9-4 12-3 2-5-1 4-5 2-1 1-3v-8l-3-7-2-3z" fill="#DBDBDA"/>
<path transform="translate(531,301)" d="m0 0 4 1v2h2l2 6-9 3-3-4v-2h-2l-1-3 1-2z" fill="#DBDBDA"/>
<path transform="translate(295,652)" d="m0 0 3 4 10 23 1 4-4-3-3-7-6 1v-3l4-2v-2l-4 1-1-2z" fill="#E4EAEB"/>
<path transform="translate(667,350)" d="m0 0h1l1 11v24l-3 16-3 14-2 1 1-8 4-24z" fill="#E4E9EB"/>
<path transform="translate(370,293)" d="m0 0v3l-5 9-3 8-3 25-3 4-2 7h-2l2-9 3-4 2-19 3-12 6-10z" fill="#E4E9EB"/>
<path transform="translate(396,419)" d="m0 0 8 1 4 2 2 3v9l-3 2h-7l-4-4-1-4v-8zm2 3-1 1v6h2l2 5 5 1 3-4-1-7-1-1z" fill="#E1E4E5"/>
<path transform="translate(710,623)" d="m0 0h1v40l-3-4-6-17 1-2 4 8 2-2z" fill="#E5EAEC"/>
<path transform="translate(686,464)" d="m0 0 1 3-10 17-3 4-5-1-18-11 3-1 16 10 4-1 11-19z" fill="#E3E8EA"/>
<path transform="translate(405,228)" d="m0 0 1 2-6 9-5 11-4 13-2 6-1 11h-1v-13l5-16 8-17z" fill="#E5EAEC"/>
<path transform="translate(529,633)" d="m0 0h3v4h3v4l-1 3h-2l-1 4-1 22h-1z" fill="#E6ECEE"/>
<path transform="translate(733,477)" d="m0 0h2l-2 7-2 4-3 7h-2l-2 7-5 1 2-5 5-8 6-11z" fill="#E4E9EB"/>
<path transform="translate(744,633)" d="m0 0 5 1-1 16h-3l1-9-2-2-1-3h-6l-1 3-3 1-1-5 1-1z" fill="#E3E8E9"/>
<path transform="translate(380,469)" d="m0 0 3 3v2l-5 4-9 5h-2v2l-6 4h-5l-1-4h-2l-2-5 3 1 4 6 18-11 4-3z" fill="#E4EAEB"/>
<path transform="translate(683,721)" d="m0 0h1v6l5 2 3-1 1-3 1 3-2 8-3-1-3-3-1 1v15l-2-1z" fill="#E5EBED"/>
<path transform="translate(817,654)" d="m0 0h1v13l-5 1h-13l-1 14h-1v-16h18v-9z" fill="#E3E7E8"/>
<path transform="translate(543,658)" d="m0 0 29 1 4 3-1 6h-2v4h-2v-11l-27-1v16h-1z" fill="#E5EBED"/>
<path transform="translate(609,405)" d="m0 0m-1 1m-2 1h2l-2 4-8 6h-3v5l-2-3 1-8 4-2z" fill="#E5EBEC"/>
<path transform="translate(589,448)" d="m0 0 7 2v2l2 1 7 7h2v2l4 1 2 5-4-2-12-9-8-7z" fill="#E5EAEC"/>
<path transform="translate(528,740)" d="m0 0 5 2 3 5 4 2-3 1h-14v-2h4v-7z" fill="#E4EAEC"/>
<path transform="translate(703,524)" d="m0 0 2 2-1 3h-2v2l-4 1-2 4-6 7h-2l-1 3h-2v5l-3-1 1-4 8-8 7-8z" fill="#E4E8EA"/>
<path transform="translate(537,326)" d="m0 0 2 2-1 4-3 1-9 1-6 1 1-4 5-4 4 2v2l6-2z" fill="#DBDBDA"/>
<path transform="translate(650,721)" d="m0 0h2l1 6 5-1v-2l3-1-1 7-3 7-3-4-4-10z" fill="#E5EAEC"/>
<path transform="translate(372,634)" d="m0 0h9l1 4-6 3-1 6-3 2z" fill="#E5EAEC"/>
<path transform="translate(367,410)" d="m0 0 2 3 9 25 5 9v2h-2l-8-15-3-10-3-8z" fill="#E4E9EA"/>
<path transform="translate(362,722)" d="m0 0h1l1 14 2 5-8 7-2-1 4-6 1-17z" fill="#E5EBED"/>
<path transform="translate(568,476)" d="m0 0h2l-3 11-6 20h-2l2-11 6-18z" fill="#E2E6E8"/>
<path transform="translate(664,350)" d="m0 0 2 1-5 10-9 10-7 5-2-1 6-5h2l2-4 3-3 2-3 5-8z" fill="#E4E9EB"/>
<path transform="translate(645,214)" d="m0 0 5 2 9 9 8 7 3 4v2h-2l-5-6v-2h-3l-7-8-8-6z" fill="#E3E8E9"/>
<path transform="translate(414,656)" d="m0 0h2l3 11-1 4h-6v-6l1-5z" fill="#DCDCDB"/>
<path transform="translate(602,632)" d="m0 0 5 1 3 3 1 3v9h-2l-1-13h-10v5h-2l1 5-2 3v-11l4-4z" fill="#E3E8E9"/>
<path transform="translate(643,273)" d="m0 0h1l1 8 10 7 9 12 2 5-3-1-7-11-4-5-9-6z" fill="#E2E7E8"/>
<path transform="translate(827,675)" d="m0 0h1l1 19 1 6h10l-4 3-7 1-2-4z" fill="#E4E9EA"/>
<path transform="translate(560,824)" d="m0 0h1l-1 7-2 7-8 12-4 2 2-4 9-15z" fill="#E3E8EA"/>
<path transform="translate(369,725)" d="m0 0 1 3 1 5 11 6-1 4-3 1-1-3-5-1v-3l-4-4v-7z" fill="#E3E8EA"/>
<path transform="translate(368,228)" d="m0 0 3 1h-2l-1 4-6 5v3l-4 2-3-1 11-12z" fill="#E4E8EA"/>
<path transform="translate(370,361)" d="m0 0 11 11 7 4 9 6-1 2-17-11-8-8z" fill="#E5EAEC"/>
<path transform="translate(344,634)" d="m0 0h10l1 1 1 11v10l-2 1-1-19-1-2-2 1-3 1z" fill="#E3E7E9"/>
<path transform="translate(528,728)" d="m0 0h6l1 1v5l-6 1-2-1v-5z" fill="#E4E9EB"/>
<path transform="translate(483,425)" d="m0 0 3 1v2l5 1v2l4 1 9 2 5 3-2 1-14-4-10-7z" fill="#E3E8E9"/>
<path transform="translate(347,286)" d="m0 0 1 3-9 19-2 5-1-4 5-13h2l1-5z" fill="#E3E7E9"/>
<path transform="translate(798,634)" d="m0 0h11v1l-6 1-3-1v9l1 8-3 1z" fill="#E5EAEC"/>
<path transform="translate(660,417)" d="m0 0 1 4-4 12-6 12-2-1z" fill="#E4E9EA"/>
<path transform="translate(526,388)" d="m0 0 5 2 1 2h12l8-1h5l-2 2-23 2z" fill="#E4EAEB"/>
<path transform="translate(756,732)" d="m0 0 2 1v7l6 2-2 1v2l-5 2-3-2 1-1v-10z" fill="#E5EAEC"/>
<path transform="translate(740,460)" d="m0 0h2l-2 8v11l-4-2 2-6h-2l3-9z" fill="#E4E9EB"/>
<path transform="translate(317,720)" d="m0 0h7v1l-10 3-4 5-1 11h-1l-1-7 1-7 3-4z" fill="#E5EBED"/>
<path transform="translate(457,621)" d="m0 0 3 1-5 3-5 8-3 13-1-3v-5l-1-2h2l2-6 4-6z" fill="#E4E9EB"/>
<path transform="translate(408,424)" d="m0 0 2 1v9l-3 2h-7l-4-4v-3h3l3 5 5-1 1-6z" fill="#E4EAEB"/>
<path transform="translate(691,652)" d="m0 0 3 4 2 4v5l-4-1-1 4z" fill="#E4E9EB"/>
<path transform="translate(664,305)" d="m0 0h2l4 10 2 14-3-1-2-15-3-6z" fill="#E4E9EB"/>
<path transform="translate(328,337)" d="m0 0h1l-1 12-2 13h-1v-16l1-1 1-7z" fill="#E5EAEC"/>
<path transform="translate(506,270)" d="m0 0 13 1v1l-16 3h-5l1-2z" fill="#E5EBED"/>
<path transform="translate(652,633)" d="m0 0h9l11 1v1h-22l-2 4-1-5z" fill="#E3E7E8"/>
<path transform="translate(652,338)" d="m0 0 1 4-7 14-5 3-2-1 8-9z" fill="#E4E9EB"/>
<path transform="translate(625,728)" d="m0 0 5 2v4l-4 1-3-2v-4z" fill="#E5EBED"/>
<path transform="translate(652,682)" d="m0 0 6 1 3 3h-13v-3z" fill="#E3E7E9"/>
<path transform="translate(657,751)" d="m0 0h3v2l13 1v1l-6 1-3 1-1-1h-6v-2l-2-1z" fill="#E6ECEE"/>
<path transform="translate(639,377)" d="m0 0 3 1-7 4-8 11-2-2 6-7 4-5z" fill="#E3E8E9"/>
<path transform="translate(504,808)" d="m0 0h1l1 15-2-1-1-8h-2l-1-3 1-2z" fill="#E5EAEC"/>
<path transform="translate(776,623)" d="m0 0 2 1 1 6 2 1-2 1-1 3h-10v-1h8z" fill="#E5EBEC"/>
<path transform="translate(197,362)" d="m0 0 13 1v1l-12 2-5 5-2 1 1-5z" fill="#E5EAEC"/>
<path transform="translate(557,422)" d="m0 0h9v2l-14 3-3-1z" fill="#E4E9EB"/>
<path transform="translate(500,388)" d="m0 0 2 1-5 6-3 6-1 7h-1v-9-3l2-1v-2z" fill="#E4E9EB"/>
<path transform="translate(494,360)" d="m0 0 10 3 9 2v1l-14-1-5-3z" fill="#E3E8EA"/>
<path transform="translate(506,694)" d="m0 0 6 1 1 2-1 2h-6l-3-3z" fill="#E6ECEE"/>
<path transform="translate(252,646)" d="m0 0h1v23h-1l-2-13z" fill="#E5EBED"/>
<path transform="translate(430,632)" d="m0 0 16 1v2l-3 1h-11l-3-3z" fill="#E6ECEE"/>
<path transform="translate(781,364)" d="m0 0 3 2-6 4h-2l-2 5v7l-2-1v-8l5-6h2l1-2z" fill="#E4E9EA"/>
<path transform="translate(477,674)" d="m0 0h1v8l-3 5-7-1v-1l7-1z" fill="#E3E7E8"/>
<path transform="translate(843,644)" d="m0 0h1v11l8 1v1h-10v-11z" fill="#E2E6E7"/>
<path transform="translate(190,372)" d="m0 0 1 3v6l5 6 4 2v2l-4-1-7-7v-9z" fill="#E3E7E8"/>
<path transform="translate(461,721)" d="m0 0 5 1 4 6h3l1-2-1 5h-4l-4-6v-2l-4-1z" fill="#E3E8E9"/>
<path transform="translate(387,522)" d="m0 0 5 2 11 8-3 1-9-6v-2l-4-1z" fill="#E4E8EA"/>
<path transform="translate(327,417)" d="m0 0 2 4 3 11-1 3-3-4z" fill="#E4E9EB"/>
<path transform="translate(224,366)" d="m0 0h8l-1 7-1-3-7-1z" fill="#DCDCDB"/>
<path transform="translate(557,300)" d="m0 0 2 1 2 5 1 16h-1l-3-15z" fill="#E5EAEC"/>
<path transform="translate(541,496)" d="m0 0h2l-1 4-3 1-2 5-5 2 6-8z" fill="#E4E9EA"/>
<path transform="translate(374,430)" d="m0 0 2 3 7 14v2h-2l-8-15z" fill="#E2E7E8"/>
<path transform="translate(630,419)" d="m0 0 5 2 2 3-1 4-3-5-5-1-5 4 2-4z" fill="#DCDCDB"/>
<path transform="translate(222,660)" d="m0 0h1v20h-1l-1-14-1-4z" fill="#E5EBED"/>
<path transform="translate(531,508)" d="m0 0 1 2-5 5 1 10-2-2-1-10z" fill="#E4EAEC"/>
<path transform="translate(436,730)" d="m0 0 4 1 1 3-2 5-3-1z" fill="#DBDBDA"/>
<path transform="translate(733,634)" d="m0 0h11v1l-7 1-1 3-3 1-1-5z" fill="#E5EBED"/>
<path transform="translate(710,514)" d="m0 0 3 1-1 4h-2l-1 3-4 2 1-4z" fill="#E3E8E9"/>
<path transform="translate(426,397)" d="m0 0h2l6 15-1 2-7-14z" fill="#E3E8E9"/>
<path transform="translate(417,445)" d="m0 0h2v2l-9 6-5 2 5-5z" fill="#E3E8EA"/>
<path transform="translate(370,293)" d="m0 0v3l-5 9-1 2h-2l2-6z" fill="#E5EAEC"/>
<path transform="translate(511,293)" d="m0 0h8l-2 1 4 5-9-1 1-2h2v-2z" fill="#DBDBDA"/>
<path transform="translate(541,811)" d="m0 0 1 3-5 5-2-1 1-4 4-1z" fill="#E4EAEB"/>
<path transform="translate(327,285)" d="m0 0 1 4-1 4h-2l-1 6h-2l1-6z" fill="#E3E8EA"/>
<path transform="translate(618,215)" d="m0 0 10 4 2 5-4-2-8-6z" fill="#E5EBED"/>
</svg>
